<?xml version="1.0" encoding="UTF-8"?>
<svg id="Capa_1" data-name="Capa 1" xmlns="http://www.w3.org/2000/svg" viewBox="0 0 290.41 60">
  <defs>
    <style>
      .cls-1 {
        fill: #fff;
      }
    </style>
  </defs>
  <g>
    <polygon class="cls-1" points="236.28 57.48 178.8 57.48 178.8 0 227.13 0 227.13 2.87 181.68 2.87 181.68 54.6 233.4 54.6 233.4 9.09 236.28 9.09 236.28 57.48"/>
    <g>
      <path class="cls-1" d="M184.65,43.09h3.89c.94,0,1.65.23,2.1.63.47.43.69.95.69,1.63,0,.89-.55,1.46-1.36,1.74v.04c.96.28,1.62,1.08,1.62,2.15,0,.82-.26,1.37-.77,1.81-.5.44-1.27.69-2.19.69h-3.99v-8.7ZM188.32,46.6c.77,0,1.29-.36,1.29-1.05,0-.64-.47-1.02-1.25-1.02h-1.95v2.07h1.91ZM186.41,50.33h2.03c.85,0,1.36-.47,1.36-1.18,0-.83-.61-1.25-1.41-1.25h-1.98v2.43Z"/>
      <path class="cls-1" d="M196.1,51.1h-.02c-.32.47-.77.84-1.84.84-1.28,0-2.18-.67-2.18-1.91,0-1.37,1.12-1.81,2.51-2.01,1.03-.15,1.51-.23,1.51-.71s-.35-.74-1.05-.74c-.78,0-1.16.28-1.2.88h-1.47c.05-1.09.86-2.06,2.69-2.06s2.63.84,2.63,2.3v3.18c0,.47.07.75.22.86v.06h-1.59c-.1-.12-.16-.41-.19-.69ZM196.11,49.59v-.94c-.29.17-.74.27-1.16.36-.86.19-1.29.39-1.29.97s.39.79.97.79c.95,0,1.47-.58,1.47-1.19Z"/>
      <path class="cls-1" d="M198.6,43.09h1.65v8.7h-1.65v-8.7Z"/>
      <path class="cls-1" d="M200.92,48.67c0-1.85,1.25-3.28,3.08-3.28,2.01,0,3.08,1.53,3.08,3.76h-4.52c.12.96.66,1.56,1.59,1.56.64,0,1.02-.29,1.2-.77h1.63c-.23,1.11-1.22,2.04-2.82,2.04-2.07,0-3.24-1.45-3.24-3.31ZM202.57,48h2.77c-.05-.79-.57-1.34-1.33-1.34-.88,0-1.3.52-1.45,1.34Z"/>
      <path class="cls-1" d="M211.44,51.1h-.02c-.32.47-.77.84-1.84.84-1.28,0-2.18-.67-2.18-1.91,0-1.37,1.12-1.81,2.51-2.01,1.03-.15,1.51-.23,1.51-.71s-.35-.74-1.05-.74c-.78,0-1.16.28-1.2.88h-1.47c.05-1.09.86-2.06,2.69-2.06s2.63.84,2.63,2.3v3.18c0,.47.07.75.22.86v.06h-1.59c-.1-.12-.16-.41-.19-.69ZM211.45,49.59v-.94c-.29.17-.74.27-1.16.36-.86.19-1.29.39-1.29.97s.39.79.97.79c.95,0,1.47-.58,1.47-1.19Z"/>
      <path class="cls-1" d="M215.51,46.55h.04c.38-.71.8-1.07,1.53-1.07.18,0,.29.01.39.05v1.45h-.04c-1.08-.11-1.86.46-1.86,1.78v3.04h-1.65v-6.24h1.59v1Z"/>
      <path class="cls-1" d="M217.66,49.77h1.53c.11.72.62,1.03,1.36,1.03s1.14-.28,1.14-.72c0-.6-.79-.66-1.64-.83-1.12-.22-2.21-.52-2.21-1.89s1.12-1.99,2.54-1.99c1.64,0,2.55.82,2.68,2.07h-1.5c-.07-.67-.5-.91-1.2-.91-.64,0-1.07.24-1.07.69,0,.54.83.58,1.72.77,1.05.22,2.2.51,2.2,1.97,0,1.25-1.07,2.01-2.63,2.01-1.81,0-2.82-.88-2.92-2.2Z"/>
    </g>
    <g>
      <path class="cls-1" d="M187.73,31.67h1.82l3.07,8.7h-1.84l-.58-1.85h-3.14l-.57,1.85h-1.79l3.03-8.7ZM187.47,37.17h2.3l-.78-2.51c-.15-.46-.35-1.34-.35-1.34h-.02s-.22.88-.36,1.34l-.78,2.51Z"/>
      <path class="cls-1" d="M193.24,31.67h3.39c2.32,0,3.82,1.87,3.82,4.44,0,1.41-.47,2.65-1.39,3.42-.64.54-1.48.84-2.58.84h-3.25v-8.7ZM196.37,38.85c1.65,0,2.3-1.01,2.3-2.74s-.75-2.93-2.25-2.93h-1.41v5.67h1.36Z"/>
      <path class="cls-1" d="M201.29,31.67h3.99c1.68,0,2.8.97,2.8,2.42,0,1.02-.47,1.8-1.59,2.1v.04c.8.23,1.22.69,1.33,1.75.12,1.23.07,2.17.38,2.3v.09h-1.69c-.22-.1-.24-1.07-.32-2.01-.07-.95-.61-1.48-1.7-1.48h-1.42v3.49h-1.76v-8.7ZM203.06,35.51h1.87c.96,0,1.44-.5,1.44-1.19s-.45-1.23-1.39-1.23h-1.92v2.42Z"/>
    </g>
    <polygon class="cls-1" points="236.29 7.75 233.41 7.75 233.41 2.87 228.54 2.87 228.54 0 236.29 0 236.29 7.75"/>
    <polygon class="cls-1" points="231.89 11.98 229.19 11.98 229.19 7.02 224.23 7.02 224.23 4.32 231.89 4.32 231.89 11.98"/>
    <g>
      <path class="cls-1" d="M242.66,31.56h1.11l1.57,4.35h-1.13l-.26-.78h-1.52l-.25.78h-1.08l1.56-4.35ZM243.7,34.35l-.33-1.05c-.07-.23-.17-.61-.17-.61h-.01s-.1.39-.18.61l-.33,1.05h1.02Z"/>
      <path class="cls-1" d="M245.29,35.98h.96c.05.16.22.3.55.3.42,0,.6-.22.6-.6v-.31h-.02c-.18.21-.42.36-.8.36-.7,0-1.35-.52-1.35-1.48s.54-1.56,1.31-1.56c.41,0,.69.16.88.43h.01v-.33h.95v2.81c0,.47-.16.81-.41,1.03-.27.24-.68.35-1.14.35-.86,0-1.42-.35-1.52-1ZM247.44,34.23c0-.42-.22-.77-.63-.77-.37,0-.61.3-.61.78s.24.77.61.77c.43,0,.63-.34.63-.78Z"/>
      <path class="cls-1" d="M248.65,34.35c0-.93.65-1.64,1.6-1.64.44,0,.8.15,1.06.39.37.34.55.88.55,1.52h-2.24c.06.42.29.68.7.68.26,0,.43-.12.52-.31h.97c-.07.28-.25.55-.52.74-.26.18-.58.29-.97.29-1.03,0-1.66-.71-1.66-1.66ZM249.21,31.53h1.14l.35.9h-.75l-.74-.9ZM250.86,34.02c-.04-.37-.27-.61-.59-.61-.38,0-.57.24-.64.61h1.23Z"/>
      <path class="cls-1" d="M252.14,32.8h.96v.43h.02c.23-.33.53-.52.96-.52.68,0,1.08.49,1.08,1.18v2.03h-.99v-1.83c0-.33-.16-.55-.49-.55s-.55.27-.55.66v1.72h-.99v-3.12Z"/>
      <path class="cls-1" d="M255.41,34.36c0-.94.65-1.65,1.63-1.65.85,0,1.39.49,1.48,1.19h-.96c-.06-.28-.23-.46-.51-.46-.43,0-.64.35-.64.92s.21.91.64.91c.31,0,.5-.18.54-.54h.95c-.02.72-.6,1.28-1.48,1.28-1,0-1.66-.71-1.66-1.65Z"/>
      <path class="cls-1" d="M258.8,31.56h.99v.8h-.99v-.8ZM258.8,32.8h.99v3.12h-.99v-3.12Z"/>
      <path class="cls-1" d="M260.07,35.04c0-.69.55-.89,1.19-.98.58-.07.79-.13.79-.35,0-.2-.13-.33-.43-.33-.32,0-.47.14-.51.4h-.91c.02-.58.47-1.07,1.41-1.07.47,0,.78.09,1.01.26.27.19.4.5.4.89v1.57c0,.25.02.39.11.44v.04h-.96c-.05-.07-.08-.19-.1-.35h-.01c-.18.26-.46.43-.92.43-.62,0-1.06-.33-1.06-.95ZM262.08,34.8v-.37c-.13.07-.31.12-.51.16-.38.09-.54.18-.54.42,0,.25.18.35.43.35.37,0,.63-.23.63-.56Z"/>
    </g>
    <g>
      <path class="cls-1" d="M241.4,39.33h1.86c1.2,0,2.01.87,2.01,2.2,0,.77-.27,1.38-.75,1.75-.34.26-.78.4-1.33.4h-1.79v-4.35ZM243.11,42.78c.71,0,1.07-.44,1.07-1.24s-.38-1.3-1.06-1.3h-.64v2.54h.63Z"/>
      <path class="cls-1" d="M245.43,42.12c0-.93.65-1.64,1.6-1.64.44,0,.8.15,1.06.39.37.34.55.88.55,1.52h-2.24c.06.42.29.68.7.68.26,0,.43-.12.52-.31h.97c-.07.28-.25.55-.52.74-.26.18-.58.29-.97.29-1.03,0-1.66-.71-1.66-1.66ZM247.64,41.79c-.04-.37-.27-.61-.59-.61-.38,0-.57.24-.64.61h1.23Z"/>
      <path class="cls-1" d="M248.73,42.68h.94c.04.31.24.46.57.46.3,0,.49-.11.49-.31,0-.28-.38-.31-.79-.38-.54-.09-1.12-.24-1.12-.97,0-.66.61-1,1.34-1,.88,0,1.36.38,1.41,1h-.91c-.04-.28-.23-.36-.5-.36-.24,0-.43.09-.43.29,0,.22.35.25.75.32.55.09,1.19.23,1.19,1.03,0,.68-.6,1.03-1.42,1.03-.91,0-1.48-.42-1.52-1.11Z"/>
      <path class="cls-1" d="M251.82,42.12c0-.93.65-1.64,1.6-1.64.44,0,.8.15,1.06.39.37.34.55.88.55,1.52h-2.24c.06.42.29.68.7.68.26,0,.43-.12.52-.31h.97c-.07.28-.25.55-.52.74-.26.18-.58.29-.97.29-1.03,0-1.66-.71-1.66-1.66ZM254.02,41.79c-.04-.37-.27-.61-.59-.61-.38,0-.57.24-.64.61h1.23Z"/>
      <path class="cls-1" d="M255.3,40.57h.96v.43h.02c.23-.33.53-.52.96-.52.68,0,1.08.49,1.08,1.18v2.03h-.99v-1.83c0-.33-.16-.55-.49-.55s-.55.27-.55.66v1.72h-.99v-3.12Z"/>
      <path class="cls-1" d="M258.4,40.57h1.02l.43,1.41c.09.31.17.63.17.63h.01s.08-.32.17-.63l.43-1.41h.99l-1.08,3.12h-1.07l-1.08-3.12Z"/>
      <path class="cls-1" d="M261.52,42.13c0-.94.67-1.65,1.67-1.65s1.66.71,1.66,1.65-.66,1.65-1.66,1.65-1.67-.71-1.67-1.65ZM263.85,42.13c0-.57-.23-.95-.66-.95s-.66.38-.66.95.23.94.66.94.66-.38.66-.94Z"/>
      <path class="cls-1" d="M265.14,39.33h1v4.35h-1v-4.35Z"/>
      <path class="cls-1" d="M266.54,42.61v-2.04h.99v1.84c0,.34.15.53.47.53.34,0,.55-.26.55-.63v-1.74h.99v3.12h-.95v-.38h-.02c-.23.3-.5.47-.93.47-.72,0-1.1-.47-1.1-1.16Z"/>
      <path class="cls-1" d="M269.95,40.57h.95v.38h.02c.21-.28.52-.47.94-.47.83,0,1.33.71,1.33,1.65,0,1.01-.54,1.66-1.36,1.66-.4,0-.69-.16-.88-.42h-.01v1.35h-.99v-4.14ZM272.19,42.16c0-.54-.2-.89-.63-.89s-.65.38-.65.89.24.85.67.85c.38,0,.61-.32.61-.85Z"/>
      <path class="cls-1" d="M273.32,42.82c0-.69.55-.89,1.19-.98.58-.07.79-.13.79-.35,0-.2-.13-.33-.43-.33-.32,0-.47.14-.5.4h-.91c.02-.58.47-1.07,1.41-1.07.47,0,.78.09,1.01.26.27.19.4.5.4.89v1.57c0,.25.02.39.11.44v.04h-.96c-.05-.07-.08-.19-.1-.35h-.01c-.18.26-.46.43-.92.43-.62,0-1.06-.33-1.06-.95ZM275.33,42.57v-.37c-.13.07-.31.12-.51.16-.38.09-.54.18-.54.42,0,.25.18.35.43.35.37,0,.63-.23.63-.56Z"/>
      <path class="cls-1" d="M276.7,40.57h.95v.44h.02c.19-.32.49-.54.94-.54.41,0,.72.21.88.55h.01c.24-.38.58-.55.98-.55.71,0,1.06.48,1.06,1.18v2.03h-.99v-1.85c0-.33-.14-.53-.44-.53-.32,0-.49.26-.49.63v1.75h-.99v-1.85c0-.33-.14-.53-.44-.53s-.49.26-.49.63v1.75h-.99v-3.12Z"/>
      <path class="cls-1" d="M281.79,42.12c0-.93.65-1.64,1.6-1.64.44,0,.8.15,1.06.39.37.34.55.88.55,1.52h-2.24c.06.42.29.68.7.68.26,0,.43-.12.52-.31h.97c-.07.28-.25.55-.52.74-.26.18-.58.29-.97.29-1.03,0-1.66-.71-1.66-1.66ZM284,41.79c-.04-.37-.27-.61-.59-.61-.38,0-.57.24-.64.61h1.23Z"/>
      <path class="cls-1" d="M285.28,40.57h.96v.43h.02c.23-.33.53-.52.96-.52.68,0,1.08.49,1.08,1.18v2.03h-.99v-1.83c0-.33-.16-.55-.49-.55s-.55.27-.55.66v1.72h-.99v-3.12Z"/>
      <path class="cls-1" d="M288.88,42.86v-1.67h-.41v-.62h.41v-.99h.97v.99h.57v.62h-.57v1.46c0,.24.13.3.35.3.09,0,.18,0,.22,0v.72c-.09.02-.27.05-.54.05-.58,0-.99-.19-.99-.86Z"/>
    </g>
    <g>
      <path class="cls-1" d="M241.4,47.11h2.08c.86,0,1.52.44,1.52,1.25,0,.51-.25.88-.75,1.05v.02c.38.13.57.37.63.8.09.57.03,1.12.18,1.17v.05h-1.05c-.12-.07-.1-.58-.16-1.01-.05-.4-.26-.62-.72-.62h-.65v1.63h-1.08v-4.35ZM243.28,49.03c.43,0,.65-.2.65-.53s-.21-.54-.62-.54h-.83v1.07h.81Z"/>
      <path class="cls-1" d="M245.19,49.9c0-.93.65-1.64,1.6-1.64.44,0,.8.15,1.06.39.37.34.55.88.55,1.52h-2.24c.06.42.29.68.7.68.26,0,.43-.12.52-.31h.97c-.07.28-.25.55-.52.74-.26.18-.58.29-.97.29-1.03,0-1.66-.71-1.66-1.66ZM247.4,49.57c-.04-.37-.27-.61-.59-.61-.38,0-.57.24-.64.61h1.23Z"/>
      <path class="cls-1" d="M248.61,51.53h.96c.05.16.22.3.55.3.42,0,.6-.22.6-.6v-.31h-.02c-.18.21-.42.36-.8.36-.7,0-1.35-.52-1.35-1.48s.54-1.56,1.31-1.56c.41,0,.69.16.88.43h.01v-.33h.95v2.81c0,.47-.16.81-.41,1.03-.27.24-.68.35-1.14.35-.86,0-1.42-.35-1.52-1ZM250.76,49.77c0-.42-.22-.77-.63-.77-.37,0-.61.3-.61.78s.24.77.61.77c.43,0,.63-.34.63-.78Z"/>
      <path class="cls-1" d="M252.11,47.11h.99v.8h-.99v-.8ZM252.11,48.34h.99v3.12h-.99v-3.12Z"/>
      <path class="cls-1" d="M253.38,49.91c0-.94.67-1.65,1.67-1.65s1.66.71,1.66,1.65-.66,1.65-1.66,1.65-1.67-.71-1.67-1.65ZM255.7,49.91c0-.57-.23-.95-.66-.95s-.66.38-.66.95.23.94.66.94.66-.38.66-.94Z"/>
      <path class="cls-1" d="M256.99,48.34h.96v.43h.02c.23-.33.53-.52.96-.52.68,0,1.08.49,1.08,1.18v2.03h-.99v-1.83c0-.33-.16-.55-.49-.55s-.55.27-.55.66v1.72h-.99v-3.12Z"/>
      <path class="cls-1" d="M260.25,50.59c0-.69.55-.89,1.19-.98.58-.07.79-.13.79-.35,0-.2-.13-.33-.43-.33-.32,0-.47.14-.51.4h-.91c.02-.58.47-1.07,1.41-1.07.47,0,.78.09,1.01.26.27.19.4.5.4.89v1.57c0,.25.02.39.11.44v.04h-.96c-.05-.07-.08-.19-.1-.35h-.01c-.18.26-.46.43-.92.43-.62,0-1.06-.33-1.06-.95ZM262.26,50.35v-.37c-.13.07-.31.12-.51.16-.38.09-.54.18-.54.42,0,.25.18.35.43.35.37,0,.63-.23.63-.56Z"/>
      <path class="cls-1" d="M263.64,47.11h1v4.35h-1v-4.35Z"/>
    </g>
    <g>
      <path class="cls-1" d="M265.96,47.11h2.1c.45,0,.78.11,1.02.3.25.21.38.49.38.83,0,.43-.23.71-.61.85v.02c.47.15.78.55.78,1.06,0,.44-.16.75-.44.97-.26.2-.61.31-1.07.31h-2.15v-4.35ZM267.91,48.83c.31,0,.52-.15.52-.44s-.2-.43-.52-.43h-.88v.87h.88ZM267.99,50.6c.35,0,.57-.2.57-.51,0-.35-.26-.52-.58-.52h-.95v1.03h.96Z"/>
      <path class="cls-1" d="M269.81,50.59c0-.69.55-.89,1.19-.98.58-.07.79-.13.79-.35,0-.2-.13-.33-.43-.33-.32,0-.47.14-.51.4h-.91c.02-.58.47-1.07,1.41-1.07.47,0,.78.09,1.01.26.27.19.4.5.4.89v1.57c0,.25.02.39.11.44v.04h-.96c-.05-.07-.08-.19-.1-.35h-.01c-.18.26-.46.43-.92.43-.62,0-1.06-.33-1.06-.95ZM271.82,50.35v-.37c-.13.07-.31.12-.51.16-.38.09-.54.18-.54.42,0,.25.18.35.43.35.37,0,.63-.23.63-.56Z"/>
      <path class="cls-1" d="M273.2,47.11h1v4.35h-1v-4.35Z"/>
      <path class="cls-1" d="M274.49,49.9c0-.93.65-1.64,1.6-1.64.44,0,.8.15,1.06.39.37.34.55.88.55,1.52h-2.24c.06.42.29.68.7.68.26,0,.43-.12.52-.31h.97c-.07.28-.25.55-.52.74-.26.18-.58.29-.97.29-1.03,0-1.66-.71-1.66-1.66ZM276.69,49.57c-.04-.37-.27-.61-.59-.61-.38,0-.57.24-.64.61h1.23Z"/>
      <path class="cls-1" d="M277.83,50.59c0-.69.55-.89,1.19-.98.58-.07.79-.13.79-.35,0-.2-.13-.33-.43-.33-.32,0-.47.14-.51.4h-.91c.02-.58.47-1.07,1.41-1.07.47,0,.78.09,1.01.26.27.19.4.5.4.89v1.57c0,.25.02.39.11.44v.04h-.96c-.05-.07-.08-.19-.1-.35h-.01c-.18.26-.46.43-.92.43-.62,0-1.06-.33-1.06-.95ZM279.84,50.35v-.37c-.13.07-.31.12-.51.16-.38.09-.54.18-.54.42,0,.25.18.35.43.35.37,0,.63-.23.63-.56Z"/>
      <path class="cls-1" d="M281.21,48.34h.95v.49h.02c.22-.37.47-.54.85-.54.09,0,.15,0,.19.02v.85h-.02c-.61-.09-1,.21-1,.89v1.4h-.99v-3.12Z"/>
      <path class="cls-1" d="M283.3,50.45h.94c.04.31.24.46.57.46.3,0,.49-.11.49-.31,0-.28-.38-.31-.79-.38-.54-.09-1.12-.24-1.12-.97,0-.66.61-1,1.34-1,.88,0,1.36.38,1.41,1h-.91c-.04-.28-.23-.36-.5-.36-.24,0-.43.09-.43.29,0,.22.35.25.75.32.55.09,1.19.23,1.19,1.03,0,.68-.6,1.03-1.42,1.03-.91,0-1.48-.42-1.52-1.11Z"/>
    </g>
  </g>
  <g>
    <path class="cls-1" d="M38.27,7.92v1.58h1.62c0,.92-.4,1.77-1.45,1.77-1.63,0-1.94-1.49-1.94-2.8s.3-2.8,1.93-2.8c.87,0,1.36.41,1.85,1.08l1.3-1.18c-.86-1.14-1.68-1.72-3.15-1.72-2.73,0-3.79,2.22-3.79,4.63s1.04,4.63,3.74,4.63c.72,0,1.33-.18,1.78-.76v.66h1.57v-5.07h-3.45ZM48.41,9.8c0-1.91-.85-3.33-2.92-3.33s-2.92,1.43-2.92,3.33.85,3.32,2.92,3.32,2.92-1.41,2.92-3.32M46.61,9.8c0,.81-.15,1.61-1.12,1.61s-1.12-.81-1.12-1.61.14-1.62,1.12-1.62,1.12.81,1.12,1.62M53,6.58l-1.31,3.88-1.24-3.88h-1.9l2.47,6.41h1.43l2.47-6.41h-1.92ZM60.6,9.66c0-1.88-.96-3.18-2.56-3.18-1.96,0-3,1.49-3,3.32s1.12,3.31,3.06,3.31c.98,0,1.71-.45,2.42-1.17l-1.1-1.07c-.31.32-.77.61-1.31.61-.77,0-1.19-.55-1.25-1.26h3.73v-.56h0ZM56.88,9.11c.1-.6.44-1,1.08-1s.91.43.99,1h-2.07ZM65.73,6.91c-.45-.32-.9-.49-1.41-.49-.68,0-1.19.44-1.19.44l-.06-.27h-1.43v6.41h1.76v-4.01c0-.55.33-.9.92-.9.25,0,.51.08.76.18l.65-1.36ZM72.03,9.39c0-1.77-.76-2.94-2.66-2.94-.42,0-.92.17-1.21.4l-.06-.26h-1.45v6.41h1.77v-3.88c0-.5.36-.92.87-.92.81,0,.96.53.96,1.23v3.57h1.77v-3.61h0ZM82.68,12.73c-.03-.09-.3-.92-.3-.96V3.94h-1.77v2.78c-.29-.18-.57-.26-.89-.26-2.01,0-2.74,1.53-2.74,3.32s.72,3.34,2.74,3.34c.44,0,.9-.09,1.28-.31l.13.38,1.55-.46ZM80.61,10.58c0,.5-.38.82-.87.82-.95,0-.98-.91-.98-1.61s.03-1.62.98-1.62c.5,0,.87.31.87.82v1.59ZM89.01,9.66c0-1.88-.96-3.18-2.56-3.18-1.96,0-3,1.49-3,3.32s1.12,3.31,3.06,3.31c.98,0,1.71-.45,2.42-1.17l-1.1-1.07c-.31.32-.77.61-1.31.61-.77,0-1.19-.55-1.25-1.26h3.73v-.56h0ZM85.3,9.11c.1-.6.44-1,1.08-1s.91.43.99,1h-2.07ZM95.92,11.51c-.3,0-.43-.08-.43-.39V3.94h-1.68v7.21c0,1.45.78,1.84,2.12,1.84v-1.48ZM102.39,9.66c0-1.88-.96-3.18-2.55-3.18-1.96,0-3,1.49-3,3.32s1.12,3.31,3.06,3.31c.98,0,1.71-.45,2.42-1.17l-1.1-1.07c-.31.32-.77.61-1.31.61-.77,0-1.19-.55-1.25-1.26h3.73v-.56ZM98.67,9.11c.1-.6.44-1,1.08-1s.91.43.99,1h-2.07ZM108.48,11.03c0-2.31-3.4-1.79-3.4-2.61,0-.38.48-.44.76-.44.38,0,.74.2.96.5l1.36-.75c-.65-.99-1.28-1.28-2.49-1.28s-2.37.61-2.37,1.97c0,2.55,3.43,1.16,3.43,2.68,0,.39-.55.44-.83.44-.66,0-.95-.22-1.11-.61l-1.54.41c.31,1.33,1.37,1.77,2.67,1.77,1.23,0,2.56-.7,2.56-2.09"/>
    <path class="cls-1" d="M36.71,18.33h-2.02v9.82h2.02v-9.82ZM40.83,26.54c-.32,0-.46-.08-.46-.42v-7.79h-1.82v7.82c0,1.57.85,2,2.3,2v-1.61ZM44.61,26.54c-.32,0-.46-.08-.46-.42v-7.79h-1.82v7.82c0,1.57.85,2,2.3,2v-1.61ZM51.62,24.53c0-2.04-1.04-3.44-2.77-3.44-2.12,0-3.24,1.62-3.24,3.6s1.21,3.58,3.32,3.58c1.06,0,1.85-.49,2.63-1.26l-1.18-1.17c-.34.35-.83.66-1.42.66-.83,0-1.28-.59-1.36-1.36h4.04v-.6h0ZM47.61,23.94c.11-.65.48-1.08,1.17-1.08s.99.46,1.07,1.08h-2.24ZM58.31,26.02c0-2.5-3.68-1.94-3.68-2.83,0-.41.52-.48.82-.48.41,0,.81.23,1.04.55l1.46-.81c-.71-1.07-1.38-1.39-2.69-1.39s-2.57.66-2.57,2.14c0,2.43,3.71,1.9,3.71,2.91,0,.42-.59.48-.9.48-.72,0-1.03-.24-1.2-.66l-1.67.45c.34,1.45,1.48,1.91,2.89,1.91,1.34,0,2.78-.76,2.78-2.27M71.9,25.15c0-.85-.32-1.69-1.04-2.17.46-.45.71-1.11.71-1.76,0-2.08-1.51-2.9-3.4-2.9h-3.61v9.82h3.84c1.99,0,3.51-.82,3.51-3M69.58,21.24c0,.91-.63,1.06-1.4,1.06h-1.62v-2.05h1.62c.75,0,1.4.11,1.4,1M69.88,25.16c0,.97-.69,1.08-1.5,1.08h-1.82v-2.18h1.82c.81,0,1.5.12,1.5,1.1M78.58,26.83v-3.53c0-1.35-1.32-2.19-2.58-2.19-1.34,0-2.41.53-2.81,1.8l1.62.56c.21-.48.65-.66,1.18-.66.44,0,.79.24.79.65v.2c0,.08-.05.17-.24.18,0,0-.59-.01-1.06,0-1.77.1-2.54.94-2.54,2.21,0,1.48,1.21,2.28,2.58,2.28.51,0,1.13-.15,1.54-.46l.14.45,1.65-.42-.28-1.06ZM76.79,26.3c-.35.28-.76.44-1.21.44-.38,0-.91-.22-.91-.69,0-.61.45-.83.97-.84h.79c.14,0,.25-.03.35-.1v1.19ZM82.52,26.54c-.32,0-.46-.08-.46-.42v-7.79h-1.82v7.82c0,1.57.85,2,2.3,2v-1.61ZM89.52,24.53c0-2.04-1.04-3.44-2.77-3.44-2.12,0-3.24,1.62-3.24,3.6s1.21,3.58,3.32,3.58c1.06,0,1.85-.49,2.63-1.26l-1.18-1.17c-.34.35-.83.66-1.42.66-.83,0-1.28-.59-1.36-1.36h4.04v-.6h0ZM85.51,23.94c.11-.65.48-1.08,1.17-1.08s.99.46,1.07,1.08h-2.24ZM96.14,26.83v-3.53c0-1.35-1.32-2.19-2.58-2.19-1.34,0-2.41.53-2.81,1.8l1.62.56c.21-.48.65-.66,1.18-.66.44,0,.79.24.79.65v.2c0,.08-.05.17-.24.18,0,0-.59-.01-1.06,0-1.77.1-2.54.94-2.54,2.21,0,1.48,1.21,2.28,2.58,2.28.51,0,1.13-.15,1.54-.46l.14.45,1.65-.42-.28-1.06ZM94.35,26.3c-.35.28-.76.44-1.21.44-.38,0-.91-.22-.91-.69,0-.61.45-.83.97-.84h.79c.14,0,.25-.03.35-.1v1.19ZM102.29,21.55c-.5-.35-.97-.54-1.52-.54-.73,0-1.28.48-1.28.48l-.07-.3h-1.55v6.95h1.91v-4.34c0-.59.35-.97,1-.97.27,0,.55.08.82.2l.7-1.47ZM108.48,26.02c0-2.5-3.68-1.94-3.68-2.83,0-.41.52-.48.82-.48.41,0,.81.23,1.04.55l1.46-.81c-.71-1.07-1.38-1.39-2.69-1.39s-2.57.66-2.57,2.14c0,2.43,3.71,1.9,3.71,2.91,0,.42-.59.48-.9.48-.72,0-1.03-.24-1.2-.66l-1.67.45c.34,1.45,1.48,1.91,2.89,1.91,1.34,0,2.78-.76,2.78-2.27"/>
    <path class="cls-1" d="M121.07,56.28c-.45.41-.89.61-1.47.61s-1.21-.3-1.21-.98.59-.99,1.18-1h.84c.23,0,.35,0,.66-.18v1.55ZM121.88,56.58v-3.07c0-.98-.98-1.62-1.91-1.62-1,0-1.77.36-2.1,1.26l.74.25c.24-.55.8-.74,1.34-.74s1.13.33,1.13.91v.45c-.2.22-.45.24-.71.25,0,0-.68,0-.86,0-1.18.04-1.91.64-1.91,1.64,0,1.13.9,1.71,1.98,1.71.58,0,1.09-.17,1.61-.59l.15.56.74-.18-.19-.83ZM116.25,51.98h-.86v5.51h.86v-5.51ZM116.43,50.01c0-.34-.27-.6-.61-.6s-.59.26-.59.6c0,.32.26.59.59.59s.61-.27.61-.59M112.79,53.79c0,.77-.43,1.14-1.21,1.14s-1.19-.36-1.19-1.14.46-1.11,1.21-1.11,1.19.34,1.19,1.11M113.61,53.8c0-.31-.05-.61-.2-.98.49-.24.63-.66.65-1.09h-.73c-.02.24-.14.42-.37.54-.4-.31-.89-.38-1.36-.38-1.26,0-2.02.63-2.02,1.9,0,.58.18,1.17.75,1.52-.4.33-.6.74-.6,1.13,0,.61.59.88,1.19.88.57,0,1.1-.24,1.68-.24.33,0,.71.18.71.59,0,.84-1.06,1.26-1.81,1.26-.55,0-1.37-.25-1.37-.81,0-.07,0-.12.02-.18l-.76-.24c-.05.14-.07.3-.07.43,0,1.13,1.23,1.56,2.25,1.56,1.22,0,2.56-.77,2.56-2.06,0-.77-.61-1.26-1.4-1.26-.64,0-1.25.3-1.9.3-.19,0-.4-.05-.4-.32,0-.33.25-.59.52-.76.24.05.41.08.63.08,1.26,0,2.04-.63,2.04-1.87M108.88,52.15c-.34-.18-.7-.27-1.07-.27-.57,0-1.18.26-1.46.76l-.02-.66h-.73v5.51h.86v-3.59c0-.7.63-1.22,1.36-1.22.25,0,.5.07.73.16l.34-.69ZM100.64,54.31c.09-.98.55-1.63,1.54-1.63s1.32.73,1.36,1.63h-2.9ZM104.35,54.5c0-1.49-.71-2.61-2.14-2.61-1.72,0-2.46,1.26-2.46,2.85s.8,2.86,2.55,2.86c.81,0,1.39-.3,1.91-.84l-.56-.52c-.33.36-.78.57-1.35.57-1.18,0-1.63-.79-1.66-1.9h3.71v-.4ZM98.63,54.37c0-1.51-.63-2.5-2.24-2.5-.5,0-1.1.2-1.46.73l-.02-.61h-.73v5.51h.86v-3.57c0-.61.57-1.21,1.32-1.21,1.14,0,1.42.71,1.42,1.67v3.11h.86v-3.13h0ZM92.84,56.61h-4.25v-2.78h3.72v-.86h-3.72v-2.52h4.25v-.89h-5.16v7.94h5.16v-.89ZM82.73,51.98h-.86v5.51h.86v-5.51ZM82.91,50.01c0-.34-.27-.6-.61-.6s-.59.26-.59.6c0,.32.26.59.59.59s.61-.27.61-.59M74.92,49.67l-.96,1.74h.7l1.24-1.74h-.97ZM76.44,54.75c0,1.02-.24,2.02-1.52,2.02s-1.52-1-1.52-2.02.23-2.03,1.52-2.03,1.52,1.01,1.52,2.03M77.32,54.75c0-1.62-.64-2.87-2.4-2.87s-2.39,1.24-2.39,2.87.63,2.86,2.39,2.86,2.4-1.23,2.4-2.86M71.18,51.98h-.86v5.51h.86v-5.51ZM71.36,50.01c0-.34-.27-.6-.61-.6s-.59.26-.59.6c0,.32.26.59.59.59s.61-.27.61-.59M69,52.8c-.57-.6-1.08-.92-1.96-.92-1.68,0-2.54,1.27-2.54,2.87s.86,2.84,2.54,2.84c.87,0,1.37-.3,1.96-.91l-.61-.57c-.36.4-.75.68-1.34.68-1.29,0-1.65-1.01-1.65-2.05s.36-2.06,1.65-2.06c.59,0,.98.28,1.34.68l.61-.57ZM62.55,56.28c-.45.41-.89.61-1.47.61s-1.22-.3-1.22-.98.59-.99,1.18-1h.84c.23,0,.35,0,.66-.18v1.55h0ZM63.36,56.58v-3.07c0-.98-.98-1.62-1.91-1.62-1,0-1.77.36-2.1,1.26l.74.25c.24-.55.8-.74,1.34-.74s1.13.33,1.13.91v.45c-.2.22-.45.24-.71.25,0,0-.68,0-.86,0-1.18.04-1.91.64-1.91,1.64,0,1.13.9,1.71,1.98,1.71.58,0,1.09-.17,1.61-.59l.15.56.74-.18-.19-.83ZM57.31,54.76c0,.91-.16,2.01-1.42,2.01-.71,0-1.32-.56-1.32-1.21v-1.64c0-.61.61-1.19,1.32-1.19,1.26,0,1.42,1.1,1.42,2.02M58.16,54.76c0-1.54-.53-2.9-2.26-2.9-.47,0-1.07.2-1.43.77l-.02-.65h-.73v8.02h.86v-3.06c.38.52.89.66,1.32.66,1.72,0,2.27-1.31,2.27-2.84M52.2,51.98h-.86v3.64c0,.71-.73,1.14-1.33,1.14-1.14,0-1.41-.64-1.41-1.62v-3.16h-.86v3.21c0,1.55.67,2.4,2.25,2.4.46,0,1-.18,1.44-.67l.02.58h.73v-5.51h0ZM46.65,52.8c-.57-.6-1.08-.92-1.96-.92-1.68,0-2.53,1.27-2.53,2.87s.86,2.84,2.53,2.84c.88,0,1.38-.3,1.96-.91l-.61-.57c-.36.4-.75.68-1.34.68-1.28,0-1.65-1.01-1.65-2.05s.36-2.06,1.65-2.06c.59,0,.98.28,1.34.68l.61-.57ZM40.29,53.53c0,1.47-.4,3.18-2.3,3.18s-2.29-1.71-2.29-3.18.4-3.18,2.29-3.18,2.3,1.71,2.3,3.18M41.2,53.53c0-2.09-.83-4.07-3.21-4.07s-3.2,1.98-3.2,4.07.83,4.07,3.2,4.07c2.38,0,3.21-1.98,3.21-4.07"/>
    <path class="cls-1" d="M141.64,43.29c0-.35-.27-.64-.64-.64-.32,0-.59.28-.59.64v2.06h.39l.84-1.5v-.56h0ZM138.27,42.63c-.44.41-.89.61-1.46.61s-1.22-.3-1.22-.98.59-.99,1.18-1h.84c.23,0,.35,0,.66-.18v1.55ZM139.07,42.93v-3.07c0-.98-.98-1.62-1.91-1.62-1,0-1.77.36-2.1,1.26l.74.25c.24-.55.8-.74,1.34-.74s1.12.33,1.12.91v.45c-.19.21-.45.24-.71.25,0,0-.68,0-.86,0-1.18.04-1.91.64-1.91,1.64,0,1.13.9,1.71,1.98,1.71.58,0,1.09-.17,1.61-.59l.15.56.74-.18-.19-.83ZM133.92,42.27c0-2.07-3.34-1.32-3.34-2.52,0-.63.71-.74,1.13-.74.52,0,.98.16,1.27.63l.67-.36c-.48-.77-1.08-1.03-2.01-1.03-1,0-1.92.46-1.92,1.51,0,1.96,3.36,1.17,3.36,2.56,0,.67-.74.88-1.25.88-.7,0-1.27-.23-1.47-.86l-.76.19c.26,1.06,1.17,1.43,2.24,1.43,1.03,0,2.09-.57,2.09-1.68M124.96,40.66c.09-.98.55-1.63,1.54-1.63s1.32.73,1.36,1.63h-2.9ZM128.67,40.85c0-1.49-.71-2.61-2.14-2.61-1.72,0-2.46,1.26-2.46,2.85s.8,2.85,2.55,2.85c.81,0,1.39-.3,1.91-.84l-.56-.52c-.33.36-.78.57-1.35.57-1.18,0-1.63-.78-1.66-1.9h3.71v-.4ZM123.59,38.5c-.34-.18-.69-.27-1.07-.27-.57,0-1.18.26-1.46.76l-.02-.66h-.73v5.51h.86v-3.59c0-.69.63-1.21,1.36-1.21.25,0,.5.07.73.16l.34-.69ZM118.23,41.11c0,.91-.16,2.02-1.42,2.02-.72,0-1.32-.56-1.32-1.21v-1.64c0-.61.61-1.19,1.32-1.19,1.26,0,1.42,1.1,1.42,2.02M119.08,41.11c0-1.54-.53-2.9-2.26-2.9-.47,0-1.07.2-1.43.77l-.02-.65h-.73v8.02h.86v-3.06c.37.52.89.66,1.32.66,1.72,0,2.27-1.31,2.27-2.84M113.21,40.72c0-1.43-.58-2.5-2.1-2.5-.7,0-1.25.28-1.59,1-.41-.74-.96-1-1.71-1-.43,0-.98.2-1.3.73l-.02-.61h-.73v5.51h.86v-3.69c0-.59.58-1.09,1.17-1.09,1.07,0,1.25.81,1.25,1.65v3.13h.86v-3.01c0-.79.15-1.77,1.21-1.77s1.24.81,1.24,1.65v3.13h.86v-3.13ZM104.42,42.96h-4.25v-2.78h3.72v-.86h-3.72v-2.52h4.25v-.89h-5.16v7.94h5.16v-.89ZM97.54,35.93c.02-.27-.24-.51-.52-.51s-.51.24-.52.52l-.05,1.8h.26s.77-1.25.77-1.25l.07-.56ZM93.91,41.92c0,.75-.61,1.21-1.32,1.21-1.26,0-1.41-1.11-1.41-2.04s.15-2.02,1.42-2.02c.72,0,1.31.47,1.31,1.21v1.65ZM94.98,43.75s-.2-.86-.2-.88v-6.96h-.86v2.95c-.33-.46-.89-.63-1.31-.63-1.73,0-2.28,1.31-2.28,2.85s.52,2.87,2.27,2.87c.52,0,1.09-.16,1.48-.64l.15.65.76-.21ZM85.13,42.63c-.45.41-.89.61-1.47.61s-1.22-.3-1.22-.98.59-.99,1.18-1h.84c.23,0,.35,0,.66-.18v1.55h0ZM85.94,42.93v-3.07c0-.98-.98-1.62-1.91-1.62-1,0-1.77.36-2.1,1.26l.74.25c.24-.55.8-.74,1.34-.74s1.13.33,1.13.91v.45c-.2.21-.45.24-.71.25,0,0-.68,0-.86,0-1.18.04-1.91.64-1.91,1.64,0,1.13.9,1.71,1.98,1.71.58,0,1.09-.17,1.61-.59l.15.56.74-.18-.19-.83ZM80.31,38.34h-.86v5.51h.86v-5.51ZM80.49,36.37c0-.34-.27-.61-.61-.61s-.59.26-.59.61c0,.32.26.59.59.59s.61-.27.61-.59M78.23,38.5c-.34-.18-.69-.27-1.07-.27-.57,0-1.18.26-1.46.76l-.02-.66h-.73v5.51h.86v-3.59c0-.69.63-1.21,1.36-1.21.25,0,.5.07.73.16l.34-.69ZM69.99,40.66c.09-.98.55-1.63,1.54-1.63s1.32.73,1.36,1.63h-2.9ZM73.7,40.85c0-1.49-.71-2.61-2.14-2.61-1.72,0-2.46,1.26-2.46,2.85s.8,2.85,2.55,2.85c.81,0,1.39-.3,1.91-.84l-.56-.52c-.33.36-.79.57-1.36.57-1.18,0-1.62-.78-1.66-1.9h3.71v-.4h0ZM68.23,43.1c-.46-.03-.61-.3-.61-.63v-6.56h-.82v6.56c0,.93.48,1.34,1.43,1.36v-.74ZM65.53,43.1c-.47-.03-.61-.3-.61-.63v-6.56h-.82v6.56c0,.93.48,1.34,1.43,1.36v-.74ZM59.19,40.66c.09-.98.55-1.63,1.54-1.63s1.32.73,1.36,1.63h-2.9ZM62.9,40.85c0-1.49-.71-2.61-2.14-2.61-1.72,0-2.46,1.26-2.46,2.85s.8,2.85,2.55,2.85c.81,0,1.39-.3,1.91-.84l-.56-.52c-.33.36-.79.57-1.36.57-1.18,0-1.62-.78-1.66-1.9h3.71v-.4h0ZM57.42,42.27c0-2.07-3.34-1.32-3.34-2.52,0-.63.71-.74,1.13-.74.52,0,.98.16,1.27.63l.67-.36c-.48-.77-1.08-1.03-2.01-1.03-1,0-1.92.46-1.92,1.51,0,1.96,3.36,1.17,3.36,2.56,0,.67-.74.88-1.25.88-.69,0-1.27-.23-1.47-.86l-.76.19c.26,1.06,1.17,1.43,2.24,1.43,1.03,0,2.09-.57,2.09-1.68M51.98,40.72c0-1.51-.63-2.5-2.24-2.5-.5,0-1.11.2-1.46.73l-.02-.61h-.73v5.51h.86v-3.57c0-.61.57-1.21,1.32-1.21,1.14,0,1.42.71,1.42,1.67v3.11h.86v-3.13h0ZM45.43,41.1c0,1.02-.24,2.02-1.52,2.02s-1.52-1-1.52-2.02.23-2.04,1.52-2.04,1.52,1.01,1.52,2.04M46.3,41.1c0-1.62-.64-2.87-2.4-2.87s-2.39,1.24-2.39,2.87.63,2.85,2.39,2.85,2.4-1.22,2.4-2.85M39.98,42.05c-.52.61-1.03,1-1.91,1-1.87,0-2.34-1.7-2.34-3.18s.48-3.18,2.34-3.18c.86,0,1.36.36,1.89.96l.65-.61c-.72-.83-1.4-1.24-2.54-1.24-2.37,0-3.26,1.96-3.26,4.07s.91,4.07,3.28,4.07c1.19,0,1.8-.41,2.55-1.3l-.65-.6Z"/>
    <path class="cls-1" d="M26,22.29c0,6.84-5.54,12.38-12.38,12.38S1.24,29.13,1.24,22.29V2.49c0-.69.56-1.24,1.24-1.24h22.28c.68,0,1.24.56,1.24,1.24v19.81h0ZM24.76.01H2.47C1.11.01,0,1.12,0,2.49v19.81c0,7.52,6.1,13.62,13.62,13.62s13.62-6.1,13.62-13.62V2.49c0-1.37-1.11-2.47-2.47-2.47"/>
    <path class="cls-1" d="M24.33,22.79c-.02.89-.15,1.76-.39,2.6l-1.02-1.12L3.4,2.71h1.76l2.26,2.51v-2.51h2.47v5.26l2.47,2.75V2.71h2.47v10.77l2.47,2.76V2.71h2.47v16.27l2.47,2.75V2.71h2.06v20.07ZM2.7,7.77c2.17,2.38,19.07,21,19.08,21l.3.33c-.26.33-.54.65-.84.95l-1.44-1.58v2.83c-.77.55-1.6.99-2.47,1.32v-6.87l-2.47-2.72v10.2c-.44.05-.88.08-1.33.08-.39,0-.76-.02-1.15-.06v-12.94l-2.47-2.72v15.1c-.87-.31-1.71-.74-2.47-1.26V14.86l-2.47-2.72v16.94c-1.39-1.8-2.17-3.99-2.23-6.29l-.02-15.02ZM24.8,2.26H2.24l.02,20.76c.13,2.86,1.33,5.53,3.39,7.54,2.12,2.07,4.91,3.2,7.87,3.2s5.75-1.14,7.87-3.2c2.06-2.01,3.25-4.68,3.39-7.54l.02-20.76Z"/>
  </g>
  <rect class="cls-1" x="159.6" y="10.79" width="1.24" height="35.92"/>
</svg>