<?xml version="1.0" encoding="UTF-8"?>
<svg id="Capa_1" data-name="Capa 1" xmlns="http://www.w3.org/2000/svg" xmlns:xlink="http://www.w3.org/1999/xlink" viewBox="0 0 257.49 48">
  <defs>
    <style>
      .cls-1 {
        fill: #cc132f;
      }

      .cls-2 {
        fill: #ffcb00;
      }

      .cls-3 {
        fill: #004f8c;
      }

      .cls-4 {
        fill: #1d1d1b;
      }

      .cls-5 {
        fill: #b79e19;
      }

      .cls-6 {
        fill: #fff;
      }

      .cls-7 {
        fill: url(#Degradado_sin_nombre_57);
      }
    </style>
    <linearGradient id="Degradado_sin_nombre_57" data-name="Degradado sin nombre 57" x1="110.07" y1="48" x2="110.07" y2="0" gradientUnits="userSpaceOnUse">
      <stop offset="0" stop-color="#f49c6c"/>
      <stop offset=".33" stop-color="#e9435f"/>
      <stop offset=".67" stop-color="#b0388d"/>
      <stop offset="1" stop-color="#3b4697"/>
    </linearGradient>
  </defs>
  <g>
    <path class="cls-5" d="M34.76,29.8c0,9.14-7.41,16.55-16.55,16.55S1.65,38.94,1.65,29.8V3.32c0-.92.74-1.65,1.65-1.65h29.79c.91,0,1.65.74,1.65,1.65v26.48ZM33.1,0H3.31C1.48,0,0,1.48,0,3.31v26.48c0,10.06,8.15,18.21,18.21,18.21s18.21-8.15,18.21-18.21V3.32c0-1.83-1.48-3.32-3.31-3.32"/>
    <polygon class="cls-1" points="9.93 3.32 6.62 3.32 9.93 6.97 9.93 3.32"/>
    <polygon class="cls-2" points="9.93 6.62 9.93 3.32 13.24 3.32 13.24 10.65 9.93 6.97 9.93 6.62"/>
    <polygon class="cls-1" points="13.24 3.32 16.55 3.32 16.55 14.33 13.24 10.65 13.24 3.32"/>
    <polygon class="cls-2" points="16.55 3.32 19.86 3.32 19.86 18.01 16.55 14.33 16.55 3.32"/>
    <polygon class="cls-1" points="19.86 3.32 23.17 3.32 23.17 21.7 19.86 18.01 19.86 3.32"/>
    <polygon class="cls-2" points="23.17 20.69 23.17 3.32 26.48 3.32 26.48 23.18 26.48 25.38 23.17 21.7 23.17 20.69"/>
    <polygon class="cls-1" points="26.48 3.32 29.79 3.32 29.79 29.06 26.48 25.38 26.48 3.32"/>
    <path class="cls-2" d="M29.79,29.06V3.32h3.31v26.48c0,.91-.09,1.81-.24,2.67l-3.07-3.41Z"/>
    <path class="cls-2" d="M3.31,29.82c0,3.55,1.24,6.81,3.31,9.37v-22.96l-3.31-3.66v17.25Z"/>
    <path class="cls-1" d="M6.62,16.23v22.96c.94,1.17,2.06,2.19,3.31,3.02v-22.35l-3.31-3.63Z"/>
    <path class="cls-2" d="M9.93,19.86v22.34c1.02.68,2.13,1.25,3.31,1.66v-20.37l-3.31-3.64Z"/>
    <path class="cls-1" d="M13.24,43.84c1.05.37,2.17.63,3.31.75v-17.46l-3.31-3.63v20.34Z"/>
    <path class="cls-2" d="M16.55,42.21v2.39c.54.06,1.1.09,1.65.09s1.11-.03,1.65-.09v-13.83l-3.31-3.64v15.07Z"/>
    <path class="cls-1" d="M23.17,34.41l-3.31-3.64v13.83c1.15-.13,2.26-.38,3.31-.75v-9.43Z"/>
    <polygon class="cls-6" points="23.17 31.93 23.21 31.9 23.17 31.85 23.17 31.93"/>
    <path class="cls-2" d="M23.17,43.85c1.18-.41,2.29-.98,3.31-1.66v-4.13l-3.31-3.64v9.43Z"/>
    <path class="cls-1" d="M26.48,38.05v4.14c.77-.52,1.5-1.11,2.16-1.76l-2.16-2.38Z"/>
    <path class="cls-3" d="M29.79,39.16c1.14-1.41,2.03-3.04,2.6-4.81l-1.75-1.92L4.28,3.32h-.97v6.73s25.81,28.41,25.81,28.41l.66.72h.02Z"/>
  </g>
  <rect x="60.41" width="1.65" height="48"/>
  <g>
    <path class="cls-7" d="M91.52,27.42v20.58h-5.45v-20.58h5.45ZM86.07,0v24h5.45V5.45h37.1v37.09h-15.13v-7.97c0-4.49-2.85-7.7-7.1-7.7-2.81,0-4.69,1.16-6.1,3.37h-.12v-2.81h-5.33v20.58h5.45v-11.68c0-2.81,1.77-4.73,4.17-4.73s3.57,1.56,3.57,3.77v12.63h26.03V0h-48Z"/>
    <g>
      <g>
        <path class="cls-4" d="M144.99,0h2.54v20.15h-2.54V0Z"/>
        <path class="cls-4" d="M153.31,7.5h.06c1.04-1.38,2.51-2.25,4.62-2.25,3.04,0,4.9,1.66,4.9,4.68v10.23h-2.28v-10.03c0-1.89-1.24-2.96-3.3-2.96-2.31,0-4,1.63-4,4.03v8.96h-2.28V5.58h2.28v1.92Z"/>
        <path class="cls-4" d="M164.12,5.58h2.45l3.02,9.24c.42,1.3.96,3.07.96,3.07h.06s.54-1.8.96-3.07l3.07-9.24h2.37l-5.24,14.57h-2.54l-5.1-14.57Z"/>
        <path class="cls-4" d="M177.51,12.88c0-4.23,2.76-7.67,6.9-7.67,4.37,0,6.71,3.38,6.71,8.2h-11.27c.17,2.96,1.78,5.21,4.71,5.21,2.11,0,3.52-1.01,4.03-2.99h2.23c-.68,3.13-2.96,4.9-6.26,4.9-4.45,0-7.04-3.44-7.04-7.66ZM179.9,11.69h8.76c-.14-2.9-1.63-4.68-4.25-4.68s-4.17,2.03-4.51,4.68Z"/>
        <path class="cls-4" d="M192.41,15.41h2.34c.31,2.54,2,3.24,4.17,3.24,2.4,0,3.38-1.04,3.38-2.4,0-1.63-1.13-2.06-3.8-2.62-2.87-.59-5.44-1.18-5.44-4.37,0-2.42,1.86-4,5.24-4,3.61,0,5.38,1.72,5.72,4.57h-2.34c-.23-1.92-1.27-2.76-3.44-2.76s-2.93.93-2.93,2.09c0,1.58,1.41,1.89,3.92,2.4,2.93.59,5.38,1.24,5.38,4.59,0,2.93-2.4,4.42-5.75,4.42-4,0-6.23-1.89-6.45-5.16Z"/>
        <path class="cls-4" d="M205.6,5.58h2.11V.99h2.28v4.59h2.82v1.86h-2.82v9.47c0,1.01.54,1.35,1.47,1.35.45,0,.96-.11,1.21-.2h.08v1.97c-.54.11-1.16.2-1.83.2-1.86,0-3.21-.76-3.21-2.82V7.44h-2.11v-1.86Z"/>
        <path class="cls-4" d="M219.65,0h2.28v2.82h-2.28V0ZM219.65,5.58h2.28v14.57h-2.28V5.58Z"/>
        <path class="cls-4" d="M227.32,7.5h.06c1.04-1.38,2.51-2.25,4.62-2.25,3.04,0,4.9,1.66,4.9,4.68v10.23h-2.28v-10.03c0-1.89-1.24-2.96-3.3-2.96-2.31,0-4,1.63-4,4.03v8.96h-2.28V5.58h2.28v1.92Z"/>
      </g>
      <g>
        <path class="cls-4" d="M144.99,27.43h9.02c2.17,0,3.83.54,4.87,1.47,1.1.99,1.61,2.2,1.61,3.78,0,2.06-1.27,3.38-3.16,4.03v.08c2.23.65,3.75,2.51,3.75,4.99,0,1.89-.59,3.18-1.78,4.2-1.16,1.01-2.93,1.61-5.07,1.61h-9.24v-20.15ZM153.5,35.54c1.78,0,2.99-.85,2.99-2.42,0-1.49-1.1-2.37-2.9-2.37h-4.51v4.79h4.42ZM149.08,44.2h4.71c1.97,0,3.16-1.1,3.16-2.73,0-1.92-1.41-2.9-3.27-2.9h-4.59v5.64Z"/>
        <path class="cls-4" d="M171.82,45.97h-.06c-.73,1.1-1.78,1.94-4.26,1.94-2.96,0-5.04-1.55-5.04-4.42,0-3.18,2.59-4.2,5.81-4.65,2.4-.34,3.49-.54,3.49-1.63s-.82-1.72-2.42-1.72c-1.8,0-2.68.65-2.79,2.03h-3.41c.11-2.54,2-4.76,6.23-4.76s6.09,1.94,6.09,5.33v7.35c0,1.1.17,1.75.51,2v.14h-3.69c-.23-.28-.37-.96-.45-1.61ZM171.85,42.48v-2.17c-.68.39-1.72.62-2.68.85-2,.45-2.99.9-2.99,2.25s.9,1.83,2.25,1.83c2.2,0,3.41-1.35,3.41-2.76Z"/>
        <path class="cls-4" d="M177.93,27.43h3.83v20.15h-3.83v-20.15Z"/>
        <path class="cls-4" d="M183.59,40.33c0-4.28,2.9-7.61,7.13-7.61,4.65,0,7.13,3.55,7.13,8.71h-10.48c.28,2.23,1.52,3.61,3.69,3.61,1.49,0,2.37-.68,2.79-1.78h3.78c-.54,2.56-2.82,4.73-6.54,4.73-4.79,0-7.5-3.35-7.5-7.67ZM187.42,38.79h6.43c-.11-1.83-1.32-3.1-3.07-3.1-2.03,0-3.02,1.21-3.35,3.1Z"/>
        <path class="cls-4" d="M208.27,45.97h-.06c-.73,1.1-1.78,1.94-4.26,1.94-2.96,0-5.04-1.55-5.04-4.42,0-3.18,2.59-4.2,5.81-4.65,2.4-.34,3.49-.54,3.49-1.63s-.82-1.72-2.42-1.72c-1.8,0-2.68.65-2.79,2.03h-3.41c.11-2.54,2-4.76,6.23-4.76s6.09,1.94,6.09,5.33v7.35c0,1.1.17,1.75.51,2v.14h-3.69c-.23-.28-.37-.96-.45-1.61ZM208.3,42.48v-2.17c-.68.39-1.72.62-2.68.85-2,.45-2.99.9-2.99,2.25s.9,1.83,2.25,1.83c2.2,0,3.41-1.35,3.41-2.76Z"/>
        <path class="cls-4" d="M218.02,35.43h.08c.87-1.63,1.86-2.48,3.55-2.48.42,0,.68.03.9.11v3.35h-.08c-2.51-.25-4.31,1.07-4.31,4.11v7.05h-3.83v-14.46h3.69v2.31Z"/>
        <path class="cls-4" d="M224.22,27.43h3.83v3.44h-3.83v-3.44ZM224.22,33.12h3.83v14.46h-3.83v-14.46Z"/>
        <path class="cls-4" d="M229.83,40.36c0-4.31,2.82-7.64,7.21-7.64,3.75,0,6.06,2.17,6.57,5.3h-3.75c-.25-1.27-1.24-2.23-2.65-2.23-2.31,0-3.49,1.78-3.49,4.56s1.1,4.56,3.44,4.56c1.55,0,2.65-.82,2.9-2.45h3.69c-.25,3.07-2.65,5.52-6.51,5.52-4.57,0-7.41-3.33-7.41-7.64Z"/>
        <path class="cls-4" d="M244.64,42.9h3.55c.25,1.66,1.44,2.4,3.16,2.4s2.65-.65,2.65-1.66c0-1.38-1.83-1.52-3.8-1.92-2.59-.51-5.13-1.21-5.13-4.37s2.59-4.62,5.89-4.62c3.8,0,5.92,1.89,6.2,4.79h-3.47c-.17-1.55-1.16-2.11-2.79-2.11-1.49,0-2.48.56-2.48,1.61,0,1.24,1.92,1.35,3.97,1.78,2.42.51,5.1,1.18,5.1,4.56,0,2.9-2.48,4.65-6.09,4.65-4.2,0-6.54-2.03-6.76-5.1Z"/>
      </g>
    </g>
  </g>
</svg>